# xmcd
#
# Track frame offsets:
#  150
#  24422
#  37085
#  51160
#  78825
#  92907
#  110732
#  127607
#  141472
#  161750
#  181330
#  189605
#  250365
#
# Disc length: 3442 seconds
#
# Revision: 1
# Processed by: cddbd v1.5.1PL2 Copyright (c) Steve Scherf et al.
# Submitted via: Collectorz.com_Music_Collector 6.9
#
DISCID=b20d700d
DTITLE=Stevie Ray Vaughan And Double Trouble - Soul To Soul (Remastered)
DYEAR=1985
DGENRE=Blues
TTITLE0=Say What!
TTITLE1=Lookin' Out The Window
TTITLE2=Look At Little Sister
TTITLE3=Ain't Gone 'N' Give Up On Love
TTITLE4=Gone Home
TTITLE5=Change It
TTITLE6=You'll Be Mine
TTITLE7=Empty Arms
TTITLE8=Come On (Part III)
TTITLE9=Life Without You
TTITLE10=SRV Speaks
TTITLE11=Little Wing/Third Stone From The Sun
TTITLE12=Slip Slidin' Slim
EXTD=
EXTT0=
EXTT1=
EXTT2=
EXTT3=
EXTT4=
EXTT5=
EXTT6=
EXTT7=
EXTT8=
EXTT9=
EXTT10=
EXTT11=
EXTT12=
PLAYORDER=
